<svg width="34" height="34" viewBox="0 0 34 34" fill="none" xmlns="http://www.w3.org/2000/svg">
<path d="M0.657715 2.90365C0.657733 2.39729 0.797037 1.90068 1.06039 1.46814C1.32374 1.03561 1.701 0.683804 2.1509 0.451214C2.6008 0.218624 3.10601 0.114204 3.61128 0.149377C4.11655 0.18455 4.60241 0.35796 5.01573 0.65064L24.3478 14.3537C24.7069 14.6076 25.0002 14.9435 25.2032 15.3336C25.4063 15.7236 25.5132 16.1565 25.5151 16.5962C25.5169 17.0359 25.4138 17.4697 25.2141 17.8615C25.0144 18.2533 24.7241 18.5918 24.3672 18.8487L5.03506 32.7561C4.62264 33.0535 4.13609 33.2313 3.62905 33.2699C3.12201 33.3085 2.61415 33.2063 2.16146 32.9748C1.70877 32.7432 1.32881 32.3912 1.06348 31.9575C0.798145 31.5238 0.657732 31.0253 0.657715 30.5169V2.90365ZM33.7985 1.51761C33.7985 1.15147 33.653 0.80033 33.394 0.541431C33.1351 0.282533 32.7838 0.137085 32.4176 0.137085C32.0514 0.137085 31.7002 0.282533 31.4412 0.541431C31.1822 0.80033 31.0367 1.15147 31.0367 1.51761V31.8891C31.0367 32.2553 31.1822 32.6064 31.4412 32.8653C31.7002 33.1242 32.0514 33.2696 32.4176 33.2696C32.7838 33.2696 33.1351 33.1242 33.394 32.8653C33.653 32.6064 33.7985 32.2553 33.7985 31.8891V1.51761Z" fill="#BAA8ED"/>
</svg>
