<svg width="34" height="34" viewBox="0 0 34 34" fill="none" xmlns="http://www.w3.org/2000/svg">
<path d="M33.4368 2.90365C33.4368 2.39729 33.2975 1.90068 33.0342 1.46814C32.7708 1.03561 32.3935 0.683804 31.9436 0.451214C31.4937 0.218624 30.9885 0.114204 30.4833 0.149377C29.978 0.18455 29.4921 0.35796 29.0788 0.65064L9.74671 14.3537C9.3876 14.6076 9.09433 14.9435 8.89131 15.3336C8.68828 15.7236 8.58138 16.1565 8.57949 16.5962C8.57759 17.0359 8.68077 17.4697 8.88043 17.8615C9.0801 18.2533 9.37046 18.5918 9.72738 18.8487L29.0595 32.7561C29.4719 33.0535 29.9584 33.2313 30.4655 33.2699C30.9725 33.3085 31.4804 33.2063 31.9331 32.9748C32.3858 32.7432 32.7657 32.3912 33.0311 31.9575C33.2964 31.5238 33.4368 31.0253 33.4368 30.5169V2.90365ZM0.29607 1.51761C0.29607 1.15147 0.441551 0.80033 0.700516 0.541431C0.959476 0.282533 1.31071 0.137085 1.67693 0.137085C2.04316 0.137085 2.39439 0.282533 2.65335 0.541431C2.91232 0.80033 3.0578 1.15147 3.0578 1.51761V31.8891C3.0578 32.2553 2.91232 32.6064 2.65335 32.8653C2.39439 33.1242 2.04316 33.2696 1.67693 33.2696C1.31071 33.2696 0.959476 33.1242 0.700516 32.8653C0.441551 32.6064 0.29607 32.2553 0.29607 31.8891V1.51761Z" fill="#BAA8ED"/>
</svg>
