<svg width="41" height="37" viewBox="0 0 41 37" fill="none" xmlns="http://www.w3.org/2000/svg">
<path d="M35.2814 23.3359C34.8617 22.9162 34.2925 22.6804 33.699 22.6804C33.1055 22.6804 32.5363 22.9162 32.1166 23.3359C31.6969 23.7556 31.4611 24.3248 31.4611 24.9183C31.4611 25.5119 31.6969 26.0811 32.1166 26.5008L32.7629 27.1471H29.2415C26.8771 27.1471 24.6095 26.2078 22.9376 24.5359C21.2657 22.864 20.3264 20.5965 20.3264 18.232C20.3264 15.8676 21.2657 13.6 22.9376 11.9282C24.6095 10.2563 26.8771 9.31699 29.2415 9.31699H32.7852L32.1166 9.96333C31.9077 10.1705 31.7419 10.417 31.6287 10.6886C31.5156 10.9602 31.4573 11.2515 31.4573 11.5458C31.4573 11.84 31.5156 12.1313 31.6287 12.4029C31.7419 12.6745 31.9077 12.921 32.1166 13.1282C32.3249 13.3347 32.5718 13.4982 32.8434 13.6091C33.1149 13.72 33.4057 13.7762 33.699 13.7745C33.9923 13.7762 34.2831 13.72 34.5547 13.6091C34.8262 13.4982 35.0732 13.3347 35.2814 13.1282L39.739 8.67065C39.9455 8.4624 40.109 8.21541 40.2199 7.94387C40.3308 7.67232 40.387 7.38155 40.3853 7.08823C40.387 6.79491 40.3308 6.50414 40.2199 6.23259C40.109 5.96105 39.9455 5.71406 39.739 5.50581L35.2814 1.04828C35.0736 0.840476 34.8269 0.675636 34.5554 0.563172C34.2839 0.450707 33.9929 0.392822 33.699 0.392822C33.1055 0.392822 32.5363 0.628599 32.1166 1.04828C31.6969 1.46797 31.4611 2.03718 31.4611 2.6307C31.4611 3.22423 31.6969 3.79344 32.1166 4.21313L32.7629 4.85947H29.2415C27.0334 4.86108 24.8601 5.40945 22.9156 6.4556C20.971 7.50176 19.3158 9.01315 18.0977 10.8548C16.8796 9.01315 15.2243 7.50176 13.2798 6.4556C11.3353 5.40945 9.16195 4.86108 6.95387 4.85947H2.49634C1.90524 4.85947 1.33834 5.09428 0.920367 5.51226C0.502393 5.93023 0.267578 6.49713 0.267578 7.08823C0.267578 7.67933 0.502393 8.24623 0.920367 8.6642C1.33834 9.08218 1.90524 9.31699 2.49634 9.31699H6.95387C9.31828 9.31699 11.5859 10.2563 13.2578 11.9282C14.9297 13.6 15.8689 15.8676 15.8689 18.232C15.8689 20.5965 14.9297 22.864 13.2578 24.5359C11.5859 26.2078 9.31828 27.1471 6.95387 27.1471H2.49634C1.90524 27.1471 1.33834 27.3819 0.920367 27.7999C0.502393 28.2179 0.267578 28.7847 0.267578 29.3759C0.267578 29.967 0.502393 30.5339 0.920367 30.9518C1.33834 31.3698 1.90524 31.6046 2.49634 31.6046H6.95387C9.16195 31.603 11.3353 31.0546 13.2798 30.0085C15.2243 28.9623 16.8796 27.4509 18.0977 25.6092C19.3158 27.4509 20.971 28.9623 22.9156 30.0085C24.8601 31.0546 27.0334 31.603 29.2415 31.6046H32.7852L32.1166 32.251C31.9077 32.4582 31.7419 32.7047 31.6287 32.9762C31.5156 33.2478 31.4573 33.5392 31.4573 33.8334C31.4573 34.1276 31.5156 34.4189 31.6287 34.6905C31.7419 34.9621 31.9077 35.2086 32.1166 35.4158C32.3249 35.6224 32.5718 35.7858 32.8434 35.8967C33.1149 36.0076 33.4057 36.0638 33.699 36.0621C33.9923 36.0638 34.2831 36.0076 34.5547 35.8967C34.8262 35.7858 35.0732 35.6224 35.2814 35.4158L39.739 30.9583C39.9455 30.75 40.109 30.503 40.2199 30.2315C40.3308 29.9599 40.387 29.6692 40.3853 29.3759C40.387 29.0825 40.3308 28.7918 40.2199 28.5202C40.109 28.2487 39.9455 28.0017 39.739 27.7934L35.2814 23.3359Z" fill="#BAA8ED"/>
</svg>
